<svg width="24" height="24" viewBox="0 0 24 24" fill="none" xmlns="http://www.w3.org/2000/svg">
<path fill-rule="evenodd" clip-rule="evenodd" d="M12 11.5C12.8284 11.5 13.5 10.8284 13.5 10C13.5 9.17157 12.8284 8.5 12 8.5C11.1716 8.5 10.5 9.17157 10.5 10C10.5 10.8284 11.1716 11.5 12 11.5ZM12 13C13.6569 13 15 11.6569 15 10C15 8.34315 13.6569 7 12 7C10.3431 7 9 8.34315 9 10C9 11.6569 10.3431 13 12 13Z" fill="white"/>
<path fill-rule="evenodd" clip-rule="evenodd" d="M6.67248 4.70085C3.74618 7.62716 3.80568 12.4607 6.67248 15.3275C8.84522 17.5003 10.812 19.6441 11.9848 20.95C13.145 19.6568 15.0911 17.5356 17.2991 15.3275C20.2336 12.3931 20.2336 7.63533 17.2991 4.70086C15.8316 3.23333 13.9112 2.5 11.9858 2.5C10.0604 2.5 8.14001 3.23333 6.67248 4.70085ZM5.61182 16.3882C2.16744 12.9438 2.09156 7.16045 5.61182 3.64019C7.37195 1.88006 9.67888 1 11.9858 1C14.2927 1 16.5997 1.88007 18.3598 3.6402C21.8801 7.16046 21.8801 12.8679 18.3598 16.3882C15.9353 18.8127 13.8269 21.1348 12.7493 22.3455C12.3441 22.8009 11.6275 22.802 11.2219 22.3469C10.1314 21.1235 7.99479 18.7712 5.61182 16.3882Z" fill="white"/>
</svg>
