<svg width="24" height="25" viewBox="0 0 24 25" fill="none" xmlns="http://www.w3.org/2000/svg">
  <path fill-rule="evenodd" clip-rule="evenodd" d="M12 24.5C18.627 24.5 24 19.1274 24 12.5C24 5.87258 18.627 0.5 12 0.5C5.373 0.5 0 5.87258 0 12.5C0 19.1274 5.373 24.5 12 24.5ZM8.035 13.5364C7.975 13.7779 7.794 13.8986 7.552 13.7779C6.224 13.2346 5.56 11.7257 5.5 10.0961C5.5 7.31964 7.85401 4 12.501 4C16.183 4 18.658 6.71607 18.658 9.61321C18.658 13.4761 16.545 16.3129 13.407 16.3129C12.32 16.3129 11.355 15.7696 10.993 15.1057C10.993 15.1057 10.449 17.3389 10.329 17.7614C9.90599 19.2704 8.699 20.8396 8.578 20.9604C8.518 21.0207 8.33701 21.0207 8.33701 20.9C8.27601 20.7189 7.97501 18.7875 8.33701 17.2182C8.51801 16.4336 9.604 11.9068 9.604 11.9068C9.604 11.9068 9.302 11.2429 9.302 10.3375C9.302 8.88893 10.147 7.8025 11.174 7.8025C12.079 7.8025 12.501 8.46643 12.501 9.25107C12.501 9.81731 12.258 10.6275 12.006 11.4636C11.882 11.8752 11.756 12.2932 11.656 12.6914C11.415 13.7175 12.2 14.5625 13.226 14.5625C15.036 14.5625 16.304 12.2086 16.304 9.37178C16.304 7.25928 14.855 5.62964 12.26 5.62964C9.30199 5.62964 7.431 7.8025 7.431 10.2771C7.431 11.1221 7.673 11.7257 8.095 12.2086C8.276 12.45 8.276 12.5104 8.216 12.7518C8.216 12.9329 8.095 13.3554 8.035 13.5364Z" fill="white"/>
</svg>