<svg width="24" height="25" viewBox="0 0 24 25" fill="none" xmlns="http://www.w3.org/2000/svg">
  <path fill-rule="evenodd" clip-rule="evenodd" d="M12 24.5C18.6274 24.5 24 19.1274 24 12.5C24 5.87258 18.6274 0.5 12 0.5C5.37258 0.5 0 5.87258 0 12.5C0 19.1274 5.37258 24.5 12 24.5ZM15.2366 6.02672C14.3817 5.96565 14.1374 5.96565 12 5.96565H8.76336C7.96947 5.96565 7.60305 6.08779 7.29771 6.20992C6.9313 6.39313 6.68702 6.51527 6.38168 6.82061C6.07633 7.12595 5.89313 7.37023 5.77099 7.73664L5.75417 7.80301C5.6896 8.05623 5.5826 8.47587 5.52672 9.20229C5.46565 10.0573 5.46565 10.3015 5.46565 12.4389C5.46565 14.5763 5.46565 14.8206 5.52672 15.6756C5.52672 16.4695 5.64885 16.8359 5.77099 17.1412C5.9542 17.5076 6.07633 17.7519 6.38168 18.0573C6.68702 18.3626 6.9313 18.5458 7.29771 18.6679L7.36408 18.6848C7.6173 18.7493 8.03694 18.8563 8.76336 18.9122C9.61832 18.9733 9.8626 18.9733 12 18.9733H15.2366C16.0305 18.9733 16.3969 18.8511 16.7023 18.729C17.0687 18.5458 17.313 18.4237 17.6183 18.1183C17.9237 17.813 18.1069 17.5687 18.229 17.2023L18.2458 17.1359C18.3104 16.8827 18.4174 16.463 18.4733 15.7366C18.5344 14.8817 18.5344 14.6374 18.5344 12.5001V12.5V12.4999C18.5344 10.3626 18.5344 10.1183 18.4733 9.26336C18.4733 8.46947 18.3511 8.10305 18.229 7.79771C18.0458 7.4313 17.9237 7.18702 17.6183 6.88168C17.313 6.57634 17.0687 6.39313 16.7023 6.27099L16.6359 6.25417C16.3827 6.1896 15.9631 6.0826 15.2366 6.02672ZM8.70229 4.56107C9.55725 4.5 9.8626 4.5 12 4.5C14.1374 4.5 14.4427 4.5 15.2977 4.56107C16.1527 4.62214 16.7634 4.74427 17.2519 4.92748C17.8015 5.11069 18.229 5.41603 18.6565 5.84351C19.084 6.27099 19.3893 6.69847 19.5725 7.24809C19.7557 7.79771 19.8779 8.34733 19.9389 9.20229C20 10.0572 20 10.3626 20 12.4998V12.5V12.5002C20 14.6985 20 14.9428 19.9389 15.7977C19.8779 16.6527 19.7557 17.2634 19.5725 17.7519C19.3893 18.3015 19.084 18.729 18.6565 19.1565C18.229 19.584 17.8015 19.8893 17.2519 20.0725C16.7023 20.2557 16.1527 20.3779 15.2977 20.4389C14.4427 20.5 14.1374 20.5 12 20.5C9.80153 20.5 9.55725 20.5 8.70229 20.4389C7.84733 20.3779 7.23664 20.2557 6.74809 20.0725C6.19847 19.8893 5.77099 19.584 5.34351 19.1565C4.91603 18.729 4.61069 18.3015 4.42748 17.7519C4.24428 17.2023 4.12214 16.6527 4.06107 15.7977C4 14.9427 4 14.6374 4 12.5C4 10.3015 4 10.0573 4.06107 9.20229C4.12214 8.34733 4.24428 7.73664 4.42748 7.24809C4.61069 6.69847 4.91603 6.27099 5.34351 5.84351C5.77099 5.41603 6.19847 5.11069 6.74809 4.92748C7.29771 4.74427 7.84733 4.62214 8.70229 4.56107ZM7.90845 12.5C7.90845 10.2405 9.74051 8.40843 12.0001 8.40843C14.2596 8.40843 16.0917 10.2405 16.0917 12.5C16.0917 14.7596 14.2596 16.5916 12.0001 16.5916C9.74051 16.5916 7.90845 14.7596 7.90845 12.5ZM9.3741 12.5C9.3741 13.9657 10.5344 15.126 12.0001 15.126C13.4657 15.126 14.626 13.9046 14.626 12.5C14.626 11.0344 13.4657 9.87408 12.0001 9.87408C10.5344 9.87408 9.3741 11.0344 9.3741 12.5ZM17.1908 8.22515C17.1908 8.77477 16.7633 9.20225 16.2137 9.20225C15.6641 9.20225 15.2366 8.77477 15.2366 8.22515C15.2366 7.67553 15.6641 7.24805 16.2137 7.24805C16.7633 7.24805 17.1908 7.67553 17.1908 8.22515Z" fill="white"/>
</svg>