<svg width="24" height="25" viewBox="0 0 24 25" fill="none" xmlns="http://www.w3.org/2000/svg">
<path fill-rule="evenodd" clip-rule="evenodd" d="M21 6H3C2.72386 6 2.5 6.22386 2.5 6.5V18.5C2.5 18.7761 2.72386 19 3 19H21C21.2761 19 21.5 18.7761 21.5 18.5V6.5C21.5 6.22386 21.2761 6 21 6ZM3 4.5C1.89543 4.5 1 5.39543 1 6.5V18.5C1 19.6046 1.89543 20.5 3 20.5H21C22.1046 20.5 23 19.6046 23 18.5V6.5C23 5.39543 22.1046 4.5 21 4.5H3Z" fill="white"/>
<path fill-rule="evenodd" clip-rule="evenodd" d="M10.219 13.9704L1.51428 6.57138L2.48575 5.42847L11.1905 12.8275C11.6572 13.2242 12.3428 13.2242 12.8096 12.8275L21.5143 5.42847L22.4858 6.57138L13.7811 13.9704C12.7541 14.8433 11.2459 14.8433 10.219 13.9704Z" fill="white"/>
</svg>
