<svg width="24" height="24" viewBox="0 0 24 24" fill="none" xmlns="http://www.w3.org/2000/svg">
<g clip-path="url(#clip0_106_805)">
<path fill-rule="evenodd" clip-rule="evenodd" d="M12 4.25C12.4142 4.25 12.75 4.58579 12.75 5L12.75 19C12.75 19.4142 12.4142 19.75 12 19.75C11.5858 19.75 11.25 19.4142 11.25 19L11.25 5C11.25 4.58579 11.5858 4.25 12 4.25Z" fill="white"/>
<path fill-rule="evenodd" clip-rule="evenodd" d="M19.5303 11.4697C19.8232 11.7626 19.8232 12.2374 19.5303 12.5303L12.5303 19.5303C12.2374 19.8232 11.7626 19.8232 11.4697 19.5303L4.46967 12.5303C4.17678 12.2374 4.17678 11.7626 4.46967 11.4697C4.76256 11.1768 5.23744 11.1768 5.53033 11.4697L12 17.9393L18.4697 11.4697C18.7626 11.1768 19.2374 11.1768 19.5303 11.4697Z" fill="white"/>
</g>
<defs>
<clipPath id="clip0_106_805">
<rect width="24" height="24" fill="white"/>
</clipPath>
</defs>
</svg>
