<svg width="24" height="25" viewBox="0 0 24 25" fill="none" xmlns="http://www.w3.org/2000/svg">
  <path fill-rule="evenodd" clip-rule="evenodd" d="M12 24.5C18.6274 24.5 24 19.1274 24 12.5C24 5.87258 18.6274 0.5 12 0.5C5.3726 0.5 0 5.87258 0 12.5C0 19.1274 5.3726 24.5 12 24.5ZM20.1421 8.3806C19.9632 7.66418 19.3816 7.08209 18.621 6.85821C17.2789 6.5 12 6.5 12 6.5C12 6.5 6.6763 6.5 5.3789 6.85821C4.6632 7.03731 4.0816 7.6194 3.8579 8.3806C3.5 9.72388 3.5 12.5 3.5 12.5C3.5 12.5 3.5 15.2761 3.8579 16.6194C4.0368 17.3358 4.6184 17.9179 5.3789 18.1418C6.7211 18.5 12 18.5 12 18.5C12 18.5 17.3237 18.5 18.621 18.1418C19.3368 17.9627 19.9184 17.3806 20.1421 16.6194C20.5 15.2761 20.5 12.5 20.5 12.5C20.5 12.5 20.5 9.72388 20.1421 8.3806ZM10.2999 15.0523V9.99263L14.7289 12.5001L10.2999 15.0523Z" fill="white"/>
</svg>