<svg width="24" height="25" viewBox="0 0 24 25" fill="none" xmlns="http://www.w3.org/2000/svg">
  <path fill-rule="evenodd" clip-rule="evenodd" d="M12 24.5C18.627 24.5 24 19.1274 24 12.5C24 5.87258 18.627 0.5 12 0.5C5.373 0.5 0 5.87258 0 12.5C0 19.1274 5.373 24.5 12 24.5ZM12.624 9.93457C13.394 7.38692 14.935 6.14272 17.127 6.20197C18.786 6.26122 19.556 7.32768 19.497 9.34209C19.438 10.9418 18.312 13.0154 16.238 15.7408C14.046 18.5255 12.209 19.9474 10.728 19.9474C9.78 19.9474 9.01 19.1179 8.358 17.3998C7.884 15.8001 7.46999 14.2596 7.05499 12.66C6.58099 11.001 6.04801 10.1123 5.51401 10.1123C5.41701 10.1123 5.12101 10.3114 4.62601 10.6443C4.51701 10.7175 4.398 10.7971 4.27 10.8825L3.5 9.93457C3.885 9.57908 4.27 9.23841 4.655 8.89773C5.04 8.55706 5.426 8.21639 5.811 7.8609C6.877 6.97219 7.647 6.49821 8.181 6.43896C9.425 6.32047 10.195 7.14993 10.491 8.9866C10.787 10.9418 11.024 12.186 11.143 12.66C11.498 14.2596 11.913 15.0891 12.328 15.0891C12.624 15.0891 13.157 14.5559 13.809 13.4894C14.461 12.423 14.816 11.5935 14.876 11.0603C14.994 10.1716 14.639 9.69758 13.809 9.69758C13.394 9.69758 13.039 9.75682 12.624 9.93457Z" fill="white"/>
</svg>  