<svg width="24" height="24" viewBox="0 0 24 24" fill="none" xmlns="http://www.w3.org/2000/svg">
<path fill-rule="evenodd" clip-rule="evenodd" d="M7.53595 6.97345H5.51951C5.25928 6.97345 5.04255 7.17307 5.0212 7.43243L4.00182 19.8159C3.97784 20.1072 4.20782 20.3569 4.50013 20.3569H19.5196C19.8119 20.3569 20.0419 20.1072 20.0179 19.8159L18.9982 7.43242C18.9769 7.17306 18.7601 6.97345 18.4999 6.97345H16.483V7.33527C16.483 7.74949 16.1472 8.08527 15.733 8.08527C15.3188 8.08527 14.983 7.74949 14.983 7.33527V6.97345H9.03595V7.33527C9.03595 7.74949 8.70016 8.08527 8.28595 8.08527C7.87173 8.08527 7.53595 7.74949 7.53595 7.33527V6.97345ZM9.03595 5.47345H14.983C14.9829 3.83125 13.6517 2.5 12.0095 2.5C10.3673 2.5 9.03598 3.83125 9.03595 5.47345ZM16.483 5.47345H18.4999C19.5408 5.47345 20.4077 6.2719 20.4931 7.30932L21.5128 19.6928C21.6088 20.8581 20.6889 21.8569 19.5196 21.8569H4.50013C3.33085 21.8569 2.41095 20.8582 2.50688 19.6928L3.52626 7.30937C3.61166 6.27193 4.47856 5.47345 5.51951 5.47345H7.53595C7.53598 3.00283 9.53883 1 12.0095 1C14.4801 1 16.4829 3.00283 16.483 5.47345Z" fill="black"/>
</svg>
