<svg width="24" height="24" viewBox="0 0 24 24" fill="none" xmlns="http://www.w3.org/2000/svg">
  <g>
    <path fill-rule="evenodd" clip-rule="evenodd" d="M21.5303 21.5303C21.2374 21.8232 20.7626 21.8232 20.4697 21.5303L14.9697 16.0303C14.6768 15.7374 14.6768 15.2626 14.9697 14.9697C15.2626 14.6768 15.7374 14.6768 16.0303 14.9697L21.5303 20.4697C21.8232 20.7626 21.8232 21.2374 21.5303 21.5303Z" fill="white"/>
    <path fill-rule="evenodd" clip-rule="evenodd" d="M10 16.5C13.5899 16.5 16.5 13.5899 16.5 10C16.5 6.41015 13.5899 3.5 10 3.5C6.41015 3.5 3.5 6.41015 3.5 10C3.5 13.5899 6.41015 16.5 10 16.5ZM10 18C14.4183 18 18 14.4183 18 10C18 5.58172 14.4183 2 10 2C5.58172 2 2 5.58172 2 10C2 14.4183 5.58172 18 10 18Z" fill="white"/>
  </g>
</svg>
