<svg width="24" height="25" viewBox="0 0 24 25" fill="none" xmlns="http://www.w3.org/2000/svg">
  <path fill-rule="evenodd" clip-rule="evenodd" d="M12 24.5C18.6274 24.5 24 19.1274 24 12.5C24 5.87258 18.6274 0.5 12 0.5C5.3726 0.5 0 5.87258 0 12.5C0 19.1274 5.3726 24.5 12 24.5ZM9.2659 19.5159C7.4246 19.5159 5.7103 19.0079 4.25 18.0556C6.0278 18.246 7.7421 17.7381 9.1389 16.7222C7.7421 16.7222 6.5357 15.7698 6.0913 14.4365C6.5992 14.5 7.1071 14.5 7.5516 14.373C5.9643 14.0556 4.8214 12.6587 4.8849 11.1349C5.2659 11.3254 5.7738 11.5159 6.3452 11.5159C4.8849 10.5635 4.4405 8.59524 5.3294 7.13492C6.9802 9.10318 9.3929 10.4365 12.123 10.5635C11.6151 8.46825 13.2024 6.5 15.2976 6.5C16.25 6.5 17.1389 6.88095 17.7103 7.51587C18.4722 7.3254 19.1706 7.07143 19.8056 6.69048C19.5516 7.45238 19.0437 8.15079 18.3452 8.53175C19.0437 8.46825 19.6786 8.27778 20.25 8.02381C19.8056 8.72222 19.2341 9.29365 18.5992 9.7381C18.8532 14.373 15.3611 19.5159 9.2659 19.5159Z" fill="white"/>
</svg>